{
  "accessors": [
    {
      "bufferView": 2,
      "componentType": 5126,
      "count": 240,
      "max": [
        4.68386173248291,
        0.6238621473312378,
        -4.262594223022461
      ],
      "min": [
        -0.7475473880767822,
        0.368688702583313,
        -6.571622371673584
      ],
      "type": "VEC3"
    },
    {
      "bufferView": 2,
      "byteOffset": 2880,
      "componentType": 5126,
      "count": 240,
      "max": [
        1.0,
        1.0,
        0.9952395558357239
      ],
      "min": [
        -1.0,
        -1.0,
        -0.9952395558357239
      ],
      "type": "VEC3"
    },
    {
      "bufferView": 3,
      "componentType": 5126,
      "count": 240,
      "max": [
        0.646359384059906,
        1.0,
        1.0,
        1.0
      ],
      "min": [
        -0.646359384059906,
        -1.0,
        -1.0,
        1.0
      ],
      "type": "VEC4"
    },
    {
      "bufferView": 1,
      "componentType": 5126,
      "count": 240,
      "max": [
        0.770657479763031,
        0.9712276458740234
      ],
      "min": [
        0.001776812132447958,
        0.0019920319318771362
      ],
      "type": "VEC2"
    },
    {
      "bufferView": 0,
      "componentType": 5125,
      "count": 420,
      "type": "SCALAR"
    },
    {
      "bufferView": 2,
      "byteOffset": 5760,
      "componentType": 5126,
      "count": 2140,
      "max": [
        4.3825883865356445,
        0.23458880186080933,
        -1.4211115837097168
      ],
      "min": [
        -0.6649969816207886,
        -0.016780972480773926,
        -3.84616756439209
      ],
      "type": "VEC3"
    },
    {
      "bufferView": 2,
      "byteOffset": 31440,
      "componentType": 5126,
      "count": 2140,
      "max": [
        0.9939963817596436,
        0.9999958872795105,
        0.9997482299804688
      ],
      "min": [
        -0.9932351112365723,
        -0.9999949336051941,
        -0.9997484087944031
      ],
      "type": "VEC3"
    },
    {
      "bufferView": 1,
      "byteOffset": 1920,
      "componentType": 5126,
      "count": 2140,
      "max": [
        0.8901827931404114,
        0.9980080723762512
      ],
      "min": [
        0.001776812132447958,
        0.6643519401550293
      ],
      "type": "VEC2"
    },
    {
      "bufferView": 0,
      "byteOffset": 1680,
      "componentType": 5125,
      "count": 5544,
      "type": "SCALAR"
    },
    {
      "bufferView": 2,
      "byteOffset": 57120,
      "componentType": 5126,
      "count": 748,
      "max": [
        4.6128973960876465,
        0.5,
        -1.4979708194732666
      ],
      "min": [
        -0.7074688076972961,
        -0.5,
        -3.76930832862854
      ],
      "type": "VEC3"
    },
    {
      "bufferView": 2,
      "byteOffset": 66096,
      "componentType": 5126,
      "count": 748,
      "max": [
        1.0,
        1.0,
        0.9935064315795898
      ],
      "min": [
        -1.0,
        -1.0,
        -0.9935064315795898
      ],
      "type": "VEC3"
    },
    {
      "bufferView": 1,
      "byteOffset": 19040,
      "componentType": 5126,
      "count": 748,
      "max": [
        0.8901827931404114,
        0.8109173774719238
      ],
      "min": [
        0.11842253804206848,
        0.0019920319318771362
      ],
      "type": "VEC2"
    },
    {
      "bufferView": 0,
      "byteOffset": 23856,
      "componentType": 5125,
      "count": 1572,
      "type": "SCALAR"
    },
    {
      "bufferView": 2,
      "byteOffset": 75072,
      "componentType": 5126,
      "count": 240,
      "max": [
        4.68386173248291,
        0.6238621473312378,
        -4.262594223022461
      ],
      "min": [
        -0.7475473880767822,
        0.368688702583313,
        -6.571622371673584
      ],
      "type": "VEC3"
    },
    {
      "bufferView": 2,
      "byteOffset": 77952,
      "componentType": 5126,
      "count": 240,
      "max": [
        1.0,
        1.0,
        0.9952395558357239
      ],
      "min": [
        -1.0,
        -1.0,
        -0.9952395558357239
      ],
      "type": "VEC3"
    },
    {
      "bufferView": 3,
      "byteOffset": 3840,
      "componentType": 5126,
      "count": 240,
      "max": [
        0.646359384059906,
        1.0,
        1.0,
        1.0
      ],
      "min": [
        -0.646359384059906,
        -1.0,
        -1.0,
        1.0
      ],
      "type": "VEC4"
    },
    {
      "bufferView": 1,
      "byteOffset": 25024,
      "componentType": 5126,
      "count": 240,
      "max": [
        0.770657479763031,
        0.9712276458740234
      ],
      "min": [
        0.001776812132447958,
        0.0019920319318771362
      ],
      "type": "VEC2"
    },
    {
      "bufferView": 0,
      "byteOffset": 30144,
      "componentType": 5125,
      "count": 420,
      "type": "SCALAR"
    },
    {
      "bufferView": 2,
      "byteOffset": 80832,
      "componentType": 5126,
      "count": 2140,
      "max": [
        4.3825883865356445,
        0.23458880186080933,
        -1.4211115837097168
      ],
      "min": [
        -0.6649969816207886,
        -0.016780972480773926,
        -3.84616756439209
      ],
      "type": "VEC3"
    },
    {
      "bufferView": 2,
      "byteOffset": 106512,
      "componentType": 5126,
      "count": 2140,
      "max": [
        0.9939963817596436,
        0.9999958872795105,
        0.999748170375824
      ],
      "min": [
        -0.9932351112365723,
        -0.9999949336051941,
        -0.9997482895851135
      ],
      "type": "VEC3"
    },
    {
      "bufferView": 1,
      "byteOffset": 26944,
      "componentType": 5126,
      "count": 2140,
      "max": [
        0.8901827931404114,
        0.9980080723762512
      ],
      "min": [
        0.001776812132447958,
        0.6643519401550293
      ],
      "type": "VEC2"
    },
    {
      "bufferView": 0,
      "byteOffset": 31824,
      "componentType": 5125,
      "count": 5544,
      "type": "SCALAR"
    },
    {
      "bufferView": 2,
      "byteOffset": 132192,
      "componentType": 5126,
      "count": 765,
      "max": [
        4.6128973960876465,
        0.5,
        -1.4979708194732666
      ],
      "min": [
        -0.7074688076972961,
        -0.5,
        -3.76930832862854
      ],
      "type": "VEC3"
    },
    {
      "bufferView": 2,
      "byteOffset": 141372,
      "componentType": 5126,
      "count": 765,
      "max": [
        1.0,
        1.0,
        0.9935064315795898
      ],
      "min": [
        -1.0,
        -1.0,
        -0.9935064315795898
      ],
      "type": "VEC3"
    },
    {
      "bufferView": 1,
      "byteOffset": 44064,
      "componentType": 5126,
      "count": 765,
      "max": [
        0.8901827931404114,
        0.8109173774719238
      ],
      "min": [
        0.11842253804206848,
        0.0019920319318771362
      ],
      "type": "VEC2"
    },
    {
      "bufferView": 0,
      "byteOffset": 54000,
      "componentType": 5125,
      "count": 1572,
      "type": "SCALAR"
    }
  ],
  "asset": {
    "extras": {
      "author": "✞BloodTea✞ (https://sketchfab.com/bloodtea)",
      "license": "CC-BY-4.0 (http://creativecommons.org/licenses/by/4.0/)",
      "source": "https://sketchfab.com/3d-models/coffin-40f961bc1b6b423fadb406e3eff9f006",
      "title": "Coffin"
    },
    "generator": "Sketchfab-16.52.0",
    "version": "2.0"
  },
  "bufferViews": [
    {
      "buffer": 0,
      "byteLength": 60288,
      "name": "floatBufferViews",
      "target": 34963
    },
    {
      "buffer": 0,
      "byteLength": 50184,
      "byteOffset": 60288,
      "byteStride": 8,
      "name": "floatBufferViews",
      "target": 34962
    },
    {
      "buffer": 0,
      "byteLength": 150552,
      "byteOffset": 110472,
      "byteStride": 12,
      "name": "floatBufferViews",
      "target": 34962
    },
    {
      "buffer": 0,
      "byteLength": 7680,
      "byteOffset": 261024,
      "byteStride": 16,
      "name": "floatBufferViews",
      "target": 34962
    }
  ],
  "buffers": [
    {
      "byteLength": 268704,
      "uri": "scene.bin"
    }
  ],
  "extensionsUsed": [
    "KHR_materials_specular"
  ],
  "images": [
    {
      "uri": "textures/phongE4_baseColor.png"
    },
    {
      "uri": "textures/phongE4_normal.png"
    },
    {
      "uri": "textures/phongE3_baseColor.png"
    },
    {
      "uri": "textures/coffin1_baseColor.png"
    }
  ],
  "materials": [
    {
      "doubleSided": true,
      "extensions": {
        "KHR_materials_specular": {
          "specularColorFactor": [
            1.0,
            1.0,
            1.0
          ],
          "specularFactor": 0.18699136761509505
        }
      },
      "name": "phongE4",
      "normalTexture": {
        "index": 1
      },
      "pbrMetallicRoughness": {
        "baseColorTexture": {
          "index": 0
        },
        "metallicFactor": 0.3639404001920221,
        "roughnessFactor": 0.8942628736559436
      }
    },
    {
      "doubleSided": true,
      "extensions": {
        "KHR_materials_specular": {
          "specularColorFactor": [
            1.0,
            1.0,
            1.0
          ],
          "specularFactor": 0.37614378174905155
        }
      },
      "name": "phongE3",
      "pbrMetallicRoughness": {
        "baseColorTexture": {
          "index": 2
        },
        "metallicFactor": 0.3395336370779632,
        "roughnessFactor": 0.8942628736559436
      }
    },
    {
      "doubleSided": true,
      "extensions": {
        "KHR_materials_specular": {
          "specularColorFactor": [
            1.0,
            1.0,
            1.0
          ],
          "specularFactor": 0.09546600593737414
        }
      },
      "name": "coffin1",
      "pbrMetallicRoughness": {
        "baseColorTexture": {
          "index": 3
        },
        "metallicFactor": 0.21749982150766867,
        "roughnessFactor": 0.6
      }
    }
  ],
  "meshes": [
    {
      "name": "lid_phongE4_0",
      "primitives": [
        {
          "attributes": {
            "NORMAL": 1,
            "POSITION": 0,
            "TANGENT": 2,
            "TEXCOORD_0": 3
          },
          "indices": 4,
          "material": 0,
          "mode": 4
        }
      ]
    },
    {
      "name": "coffin_phongE3_0",
      "primitives": [
        {
          "attributes": {
            "NORMAL": 6,
            "POSITION": 5,
            "TEXCOORD_0": 7
          },
          "indices": 8,
          "material": 1,
          "mode": 4
        }
      ]
    },
    {
      "name": "coffin_coffin1_0",
      "primitives": [
        {
          "attributes": {
            "NORMAL": 10,
            "POSITION": 9,
            "TEXCOORD_0": 11
          },
          "indices": 12,
          "material": 2,
          "mode": 4
        }
      ]
    },
    {
      "name": "lid1_phongE4_0",
      "primitives": [
        {
          "attributes": {
            "NORMAL": 14,
            "POSITION": 13,
            "TANGENT": 15,
            "TEXCOORD_0": 16
          },
          "indices": 17,
          "material": 0,
          "mode": 4
        }
      ]
    },
    {
      "name": "coffin2_phongE3_0",
      "primitives": [
        {
          "attributes": {
            "NORMAL": 19,
            "POSITION": 18,
            "TEXCOORD_0": 20
          },
          "indices": 21,
          "material": 1,
          "mode": 4
        }
      ]
    },
    {
      "name": "coffin2_coffin1_0",
      "primitives": [
        {
          "attributes": {
            "NORMAL": 23,
            "POSITION": 22,
            "TEXCOORD_0": 24
          },
          "indices": 25,
          "material": 2,
          "mode": 4
        }
      ]
    }
  ],
  "nodes": [
    {
      "children": [
        1
      ],
      "matrix": [
        1.0,
        0.0,
        0.0,
        0.0,
        0.0,
        2.220446049250313e-16,
        -1.0,
        0.0,
        0.0,
        1.0,
        2.220446049250313e-16,
        0.0,
        0.0,
        0.0,
        0.0,
        1.0
      ],
      "name": "Sketchfab_model"
    },
    {
      "children": [
        2
      ],
      "matrix": [
        0.009999999776482582,
        0.0,
        0.0,
        0.0,
        0.0,
        0.0,
        0.009999999776482582,
        0.0,
        0.0,
        -0.009999999776482582,
        0.0,
        0.0,
        0.0,
        0.0,
        0.0,
        1.0
      ],
      "name": "94bbef9cbc864ffe9947cbabd37a97ab.fbx"
    },
    {
      "children": [
        3,
        5,
        8,
        10
      ],
      "name": "RootNode"
    },
    {
      "children": [
        4
      ],
      "matrix": [
        1.0,
        0.0,
        0.0,
        0.0,
        0.0,
        1.0,
        0.0,
        0.0,
        0.0,
        0.0,
        1.0,
        0.0,
        -0.029989225789904594,
        0.40746453404426575,
        2.8509325981140137,
        1.0
      ],
      "name": "lid"
    },
    {
      "mesh": 0,
      "name": "lid_phongE4_0"
    },
    {
      "children": [
        6,
        7
      ],
      "matrix": [
        1.0,
        0.0,
        0.0,
        0.0,
        0.0,
        1.0,
        0.0,
        0.0,
        0.0,
        0.0,
        1.0,
        0.0,
        0.0,
        0.4248805046081543,
        0.06646943092346191,
        1.0
      ],
      "name": "coffin"
    },
    {
      "mesh": 1,
      "name": "coffin_phongE3_0"
    },
    {
      "mesh": 2,
      "name": "coffin_coffin1_0"
    },
    {
      "children": [
        9
      ],
      "matrix": [
        0.9917581409700076,
        -0.07303002425528626,
        0.10527300402756122,
        0.0,
        -0.0028563065227820497,
        0.8088420956223513,
        0.5880189672640594,
        0.0,
        -0.12809227663197548,
        -0.5834732897969841,
        0.801967136958069,
        0.0,
        -0.719414234161377,
        -2.774777889251709,
        5.821431636810303,
        1.0
      ],
      "name": "lid1"
    },
    {
      "mesh": 3,
      "name": "lid1_phongE4_0"
    },
    {
      "children": [
        11,
        12
      ],
      "matrix": [
        1.0,
        0.0,
        0.0,
        0.0,
        0.0,
        1.0,
        0.0,
        0.0,
        0.0,
        0.0,
        1.0,
        0.0,
        0.0,
        0.49190935492515564,
        3.09386944770813,
        1.0
      ],
      "name": "coffin2"
    },
    {
      "mesh": 4,
      "name": "coffin2_phongE3_0"
    },
    {
      "mesh": 5,
      "name": "coffin2_coffin1_0"
    }
  ],
  "samplers": [
    {
      "magFilter": 9729,
      "minFilter": 9987,
      "wrapS": 10497,
      "wrapT": 10497
    }
  ],
  "scene": 0,
  "scenes": [
    {
      "name": "Sketchfab_Scene",
      "nodes": [
        0
      ]
    }
  ],
  "textures": [
    {
      "sampler": 0,
      "source": 0
    },
    {
      "sampler": 0,
      "source": 1
    },
    {
      "sampler": 0,
      "source": 2
    },
    {
      "sampler": 0,
      "source": 3
    }
  ]
}
